#!OML:ASF X:\für Bonn\!DataBase\2005_08_10_Bjorn_Final\c3d\bjorn.ASF
:FULLY-SPECIFIED
:DEGREES
94
root -21.623 18.7846 -20.0941 -164.89 -195.652 -181.498
lowerback -6.48651 -3.79026 1.85391
upperback 4.34685 -5.42522 2.19539
thorax 8.264 -2.61248 0.545621
lowerneck -5.51536 3.48984 2.80047
upperneck 7.07317 4.74348 -3.91904
head 3.45289 2.27387 -1.55645
rclavicle 3.63776e-014 4.87022e-015
rhumerus -57.7411 -2.1603 -87.2783
rradius 47.212
rwrist -1.28163
rhand -20.179 20.8078
rfingers 7.12502
rthumb 6.16704 -9.08243
lclavicle 3.63776e-014 4.87022e-015
lhumerus -28.3445 -39.996 93.9577
lradius 88.2804
lwrist -16.1452
lhand -43.2284 -24.3435
lfingers 7.12502
lthumb -16.0783 5.00949
rfemur -41.0224 -6.34912 17.1459
rtibia 47.6283
rfoot -21.4187 2.60284
rtoes -20.4319
lfemur 8.05738 0.221137 -14.4929
ltibia 22.1736
lfoot 4.88086 -8.37568
ltoes -21.3825
95
root -21.598 18.7522 -19.8903 -164.953 -195.691 -181.539
lowerback -6.37432 -3.69963 2.07925
upperback 4.27041 -5.33251 2.38491
thorax 8.11442 -2.56316 0.642779
lowerneck -5.8178 3.56351 2.74534
upperneck 7.23188 4.85901 -4.06417
head 3.57492 2.31946 -1.5851
rclavicle 6.36111e-015 1.43125e-014
rhumerus -57.5485 -2.32786 -86.9609
rradius 48.7425
rwrist -0.528457
rhand -20.5244 20.3743
rfingers 7.12502
rthumb 5.83356 -9.52541
lclavicle 6.36111e-015 1.43125e-014
lhumerus -29.9341 -39.9528 95.4981
lradius 87.3419
lwrist -15.0912
lhand -42.4189 -24.7127
lfingers 7.12502
lthumb -15.2987 4.70151
rfemur -40.2675 -6.41126 17.3116
rtibia 47.7306
rfoot -21.6051 2.65333
rtoes -20.191
lfemur 7.11622 -0.392132 -14.5402
ltibia 25.0447
lfoot 5.68425 -7.40832
ltoes -21.4872
96
root -21.5698 18.7128 -19.6834 -165.056 -195.704 -181.691
lowerback -6.30234 -3.57006 2.42361
upperback 4.23162 -5.2026 2.5944
thorax 8.02076 -2.48862 0.695478
lowerneck -6.16124 3.62571 2.71038
upperneck 7.359 4.96103 -4.2574
head 3.69675 2.35625 -1.63361
rclavicle 1.16289e-014 -3.95581e-014
rhumerus -57.1547 -2.48256 -86.6979
rradius 50.2629
rwrist 0.171357
rhand -20.8773 19.7369
rfingers 7.12502
rthumb 5.49286 -10.1719
lclavicle 1.16289e-014 -3.95581e-014
lhumerus -31.5288 -39.6282 97.0988
lradius 86.4798
lwrist -14.1959
lhand -41.2915 -24.6035
lfingers 7.12502
lthumb -14.2126 4.89028
rfemur -39.5448 -6.51419 17.5915
rtibia 47.9156
rfoot -21.8907 2.78839
rtoes -20.0198
lfemur 6.10449 -0.894611 -14.4763
ltibia 28.0934
lfoot 6.31989 -6.42002
ltoes -22.1032
97
root -21.5388 18.6656 -19.4735 -165.177 -195.671 -181.947
lowerback -6.27244 -3.40744 2.88075
upperback 4.20517 -5.04127 2.81036
thorax 7.95695 -2.39211 0.693143
lowerneck -6.49298 3.69378 2.68711
upperneck 7.46514 5.06874 -4.43114
head 3.80968 2.39676 -1.6775
rclavicle -3.926e-014 4.8901e-014
rhumerus -56.6774 -2.65636 -86.4853
rradius 51.8427
rwrist 0.837797
rhand -21.1304 19.1215
rfingers 7.12502
rthumb 5.24848 -10.7935
lclavicle -3.926e-014 4.8901e-014
lhumerus -33.0587 -39.1374 98.6467
lradius 85.6289
lwrist -13.2019
lhand -39.8151 -24.3119
lfingers 7.12502
lthumb -12.7895 5.27637
rfemur -38.9083 -6.65194 17.9738
rtibia 48.2029
rfoot -22.264 3.09282
rtoes -19.6297
lfemur 5.01806 -1.25205 -14.3142
ltibia 31.277
lfoot 6.84072 -5.43351
ltoes -22.4931
98
root -21.5077 18.61 -19.2647 -165.335 -195.55 -182.229
lowerback -6.1765 -3.21527 3.34593
upperback 4.19098 -4.83619 3.01328
thorax 7.86795 -2.27403 0.68141
lowerneck -6.90867 3.78118 2.63756
upperneck 7.62816 5.20328 -4.56421
head 3.9587 2.44933 -1.70009
rclavicle -3.73715e-014 -3.18055e-015
rhumerus -56.0602 -2.79308 -86.304
rradius 53.3396
rwrist 1.49979
rhand -21.3347 18.6751
rfingers 7.12502
rthumb 5.05117 -11.2447
lclavicle -3.73715e-014 -3.18055e-015
lhumerus -34.4995 -38.5296 100.152
lradius 84.7056
lwrist -12.2821
lhand -38.4192 -23.7787
lfingers 7.12502
lthumb -11.4436 5.88898
rfemur -38.3316 -6.81285 18.3629
rtibia 48.6074
rfoot -22.7449 3.51128
rtoes -19.4984
lfemur 3.89651 -1.46517 -14.1433
ltibia 34.5506
lfoot 7.39177 -4.42627
ltoes -22.5167
99
root -21.4796 18.5439 -19.0607 -165.555 -195.412 -182.468
lowerback -5.95303 -3.00275 3.76638
upperback 4.19108 -4.58857 3.18689
thorax 7.72332 -2.13805 0.674681
lowerneck -7.22 3.84084 2.654
upperneck 7.65541 5.30094 -4.80216
head 4.04502 2.48331 -1.77371
rclavicle -3.57812e-014 4.77083e-015
rhumerus -55.3869 -2.91723 -86.1406
rradius 54.8001
rwrist 2.08763
rhand -21.5302 18.6608
rfingers 7.12502
rthumb 4.8624 -11.2634
lclavicle -3.57812e-014 4.77083e-015
lhumerus -35.8266 -37.885 101.583
lradius 83.7044
lwrist -11.2316
lhand -37.1159 -23.3079
lfingers 7.12502
lthumb -10.1865 6.42551
rfemur -37.7511 -7.05556 18.704
rtibia 49.1332
rfoot -23.3574 4.05105
rtoes -19.516
lfemur 2.78495 -1.65293 -14.0114
ltibia 37.8535
lfoot 7.93739 -3.37689
ltoes -22.5376
100
root -21.4537 18.4745 -18.8594 -165.799 -195.163 -182.599
lowerback -5.62241 -2.76389 4.03429
upperback 4.19174 -4.27982 3.3243
thorax 7.52745 -1.98064 0.724901
lowerneck -7.40189 3.88604 2.64981
upperneck 7.55542 5.38106 -5.06712
head 4.0603 2.50974 -1.85567
rclavicle 1.21259e-014 -8.34896e-015
rhumerus -54.5956 -2.9754 -85.9818
rradius 56.1399
rwrist 2.71176
rhand -21.545 18.997
rfingers 7.12502
rthumb 4.84812 -10.9275
lclavicle 1.21259e-014 -8.34896e-015
lhumerus -37.1695 -37.1342 102.971
lradius 82.6941
lwrist -10.1791
lhand -36.1707 -23.0368
lfingers 7.12502
lthumb -9.2745 6.7392
rfemur -37.1891 -7.44827 18.9232
rtibia 49.7491
rfoot -24.032 4.72967
rtoes -19.9483
lfemur 1.69722 -1.7622 -14.0467
ltibia 41.1377
lfoot 8.3353 -2.34903
ltoes -22.7041
